<?xml version="1.0" encoding="UTF-8" standalone="no"?>
<!DOCTYPE svg PUBLIC "-//W3C//DTD SVG 1.1//EN" "http://www.w3.org/Graphics/SVG/1.1/DTD/svg11.dtd">
<svg width="100%" height="100%" viewBox="0 0 116 116" version="1.1" xmlns="http://www.w3.org/2000/svg" xmlns:xlink="http://www.w3.org/1999/xlink" xml:space="preserve" xmlns:serif="http://www.serif.com/" style="fill-rule:evenodd;clip-rule:evenodd;stroke-linejoin:round;stroke-miterlimit:2;">
    <g transform="matrix(1,0,0,1,-2883,-348)">
        <g transform="matrix(1,0,0,1,-0.333333,0)">
            <g transform="matrix(0.658046,0,0,0.658046,2395.98,538.267)">
                <path d="M780.364,-249.636C785.614,-271.628 805.41,-288 829,-288C852.59,-288 872.386,-271.628 877.636,-249.636C899.628,-244.386 916,-224.59 916,-201C916,-177.41 899.628,-157.614 877.636,-152.364C872.386,-130.372 852.59,-114 829,-114C805.41,-114 785.614,-130.372 780.364,-152.364C758.372,-157.614 742,-177.41 742,-201C742,-224.59 758.372,-244.386 780.364,-249.636ZM829,-167.384C822.994,-160.778 815.244,-155.784 806.483,-153.133C810.528,-144.772 819.095,-139 829,-139C838.905,-139 847.472,-144.772 851.517,-153.133C842.755,-155.784 835.006,-160.778 829,-167.384ZM876.867,-223.517C874.216,-214.755 869.222,-207.006 862.616,-201C869.222,-194.994 874.216,-187.244 876.867,-178.483C885.228,-182.528 891,-191.095 891,-201C891,-210.905 885.228,-219.472 876.867,-223.517ZM781.133,-223.517C772.772,-219.472 767,-210.905 767,-201C767,-191.095 772.772,-182.528 781.133,-178.483C783.784,-187.245 788.778,-194.994 795.384,-201C788.778,-207.006 783.784,-214.756 781.133,-223.517ZM851.517,-248.867C847.472,-257.228 838.905,-263 829,-263C819.095,-263 810.528,-257.228 806.483,-248.867C815.245,-246.216 822.994,-241.222 829,-234.616C835.006,-241.222 842.756,-246.216 851.517,-248.867Z"/>
            </g>
        </g>
    </g>
</svg>
