<?xml version="1.0" encoding="UTF-8" standalone="no"?>
<!DOCTYPE svg PUBLIC "-//W3C//DTD SVG 1.1//EN" "http://www.w3.org/Graphics/SVG/1.1/DTD/svg11.dtd">
<svg width="100%" height="100%" viewBox="0 0 131 130" version="1.1" xmlns="http://www.w3.org/2000/svg" xmlns:xlink="http://www.w3.org/1999/xlink" xml:space="preserve" xmlns:serif="http://www.serif.com/" style="fill-rule:evenodd;clip-rule:evenodd;stroke-linejoin:round;stroke-miterlimit:2;">
    <g transform="matrix(1,0,0,1,-2248,-341)">
        <g transform="matrix(1,0,0,1,-0.333333,0)">
            <g transform="matrix(0.722222,0,0,0.722222,1646.53,209.194)">
                <path d="M915.5,200.437L915.5,182.5L931.5,182.5L931.5,200.437C965.128,204.135 991.865,230.872 995.563,264.5L1013.5,264.5L1013.5,280.5L995.563,280.5C991.865,314.128 965.128,340.865 931.5,344.563L931.5,362.5L915.5,362.5L915.5,344.563C881.872,340.865 855.135,314.128 851.437,280.5L833.5,280.5L833.5,264.5L851.437,264.5C855.135,230.872 881.872,204.135 915.5,200.437ZM915.5,218.711C891.888,222.198 873.198,240.888 869.711,264.5L906.5,264.5L906.5,280.5L869.711,280.5C873.198,304.112 891.888,322.802 915.5,326.289L915.5,289.5L931.5,289.5L931.5,326.289C955.112,322.802 973.802,304.112 977.289,280.5L940.5,280.5L940.5,264.5L977.289,264.5C973.802,240.888 955.112,222.198 931.5,218.711L931.5,255.5L915.5,255.5L915.5,218.711Z"/>
            </g>
        </g>
    </g>
</svg>
