<?xml version="1.0" encoding="UTF-8" standalone="no"?>
<!DOCTYPE svg PUBLIC "-//W3C//DTD SVG 1.1//EN" "http://www.w3.org/Graphics/SVG/1.1/DTD/svg11.dtd">
<svg width="100%" height="100%" viewBox="0 0 113 113" version="1.1" xmlns="http://www.w3.org/2000/svg" xmlns:xlink="http://www.w3.org/1999/xlink" xml:space="preserve" xmlns:serif="http://www.serif.com/" style="fill-rule:evenodd;clip-rule:evenodd;stroke-linejoin:round;stroke-miterlimit:2;">
    <g transform="matrix(1,0,0,1,-3811,-354)">
        <g transform="matrix(1,0,0,1,-0.333333,0)">
            <g transform="matrix(1,0,0,1,1834.17,-26)">
                <path d="M2034,380.667C2064.91,380.667 2090,405.759 2090,436.667C2090,467.574 2064.91,492.667 2034,492.667C2003.09,492.667 1978,467.574 1978,436.667C1978,405.759 2003.09,380.667 2034,380.667ZM2061.05,471.167C2054.7,463.243 2044.94,458.167 2034,458.167C2023.06,458.167 2013.3,463.243 2006.95,471.167L2061.05,471.167ZM2012,410.667C2019.17,410.667 2025,416.492 2025,423.667C2025,430.842 2019.17,436.667 2012,436.667C2004.83,436.667 1999,430.842 1999,423.667C1999,416.492 2004.83,410.667 2012,410.667ZM2056,410.667C2063.18,410.667 2069,416.492 2069,423.667C2069,430.842 2063.18,436.667 2056,436.667C2048.82,436.667 2043,430.842 2043,423.667C2043,416.492 2048.82,410.667 2056,410.667Z"/>
            </g>
        </g>
    </g>
</svg>
