<?xml version="1.0" encoding="UTF-8" standalone="no"?>
<!DOCTYPE svg PUBLIC "-//W3C//DTD SVG 1.1//EN" "http://www.w3.org/Graphics/SVG/1.1/DTD/svg11.dtd">
<svg width="100%" height="100%" viewBox="0 0 128 116" version="1.1" xmlns="http://www.w3.org/2000/svg" xmlns:xlink="http://www.w3.org/1999/xlink" xml:space="preserve" xmlns:serif="http://www.serif.com/" style="fill-rule:evenodd;clip-rule:evenodd;stroke-linejoin:round;stroke-miterlimit:2;">
    <g transform="matrix(1,0,0,1,-3488,-618)">
        <g transform="matrix(1,0,0,1,-0.333333,0)">
            <g transform="matrix(1,0,0,1,2276,-74.3019)">
                <path d="M1297.5,807.849L1255.5,807.849L1255.5,801.349L1259,801.349L1259,733.349L1294,733.349L1294,801.349L1297.5,801.349L1297.5,807.849Z"/>
            </g>
            <g transform="matrix(1,0,0,1,2127.21,-1.13687e-13)">
                <g transform="matrix(0.799737,0,0,0.799737,357.43,73.8576)">
                    <path d="M1297.5,807.849L1255.5,807.849L1255.5,801.349L1259,801.349L1259,733.349L1294,733.349L1294,801.349L1297.5,801.349L1297.5,807.849Z"/>
                </g>
                <g transform="matrix(0.799737,0,0,0.799737,451.43,73.8576)">
                    <path d="M1297.5,807.849L1255.5,807.849L1255.5,801.349L1259,801.349L1259,733.349L1294,733.349L1294,801.349L1297.5,801.349L1297.5,807.849Z"/>
                </g>
                <g transform="matrix(0.799737,0,0,0.799737,373.425,175.424)">
                    <path d="M1274,601.849C1274,592.544 1266.16,566 1256.5,566C1246.84,566 1239,592.544 1239,601.849L1274,601.849Z"/>
                </g>
                <g transform="matrix(0.799737,0,0,0.799737,467.425,175.424)">
                    <path d="M1274,601.849C1274,592.544 1266.16,566 1256.5,566C1246.84,566 1239,592.544 1239,601.849L1274,601.849Z"/>
                </g>
            </g>
            <g transform="matrix(1,0,0,1,2296,52.6981)">
                <path d="M1274,601.849C1274,592.544 1266.16,566 1256.5,566C1246.84,566 1239,592.544 1239,601.849L1274,601.849Z"/>
            </g>
        </g>
    </g>
</svg>
