<?xml version="1.0" encoding="UTF-8" standalone="no"?>
<!DOCTYPE svg PUBLIC "-//W3C//DTD SVG 1.1//EN" "http://www.w3.org/Graphics/SVG/1.1/DTD/svg11.dtd">
<svg width="100%" height="100%" viewBox="0 0 136 112" version="1.1" xmlns="http://www.w3.org/2000/svg" xmlns:xlink="http://www.w3.org/1999/xlink" xml:space="preserve" xmlns:serif="http://www.serif.com/" style="fill-rule:evenodd;clip-rule:evenodd;stroke-linejoin:round;stroke-miterlimit:2;">
    <g transform="matrix(1,0,0,1,-2554,-618)">
        <g transform="matrix(1,0,0,1,-0.333333,0)">
            <g transform="matrix(1,0,0,1,2749.7,-3.50004)">
                <g transform="matrix(6.12323e-17,-1,1,6.12323e-17,-804.7,533)">
                    <path d="M-144.5,610C-122.699,610 -105,640.246 -105,677.5C-105,714.754 -122.699,745 -144.5,745C-166.301,745 -184,714.754 -184,677.5C-184,640.246 -166.301,610 -144.5,610ZM-144.5,626.875C-128.15,626.875 -114.875,649.559 -114.875,677.5C-114.875,705.441 -128.15,728.125 -144.5,728.125C-160.85,728.125 -174.125,705.441 -174.125,677.5C-174.125,649.559 -160.85,626.875 -144.5,626.875Z"/>
                </g>
                <g transform="matrix(-0.707107,-0.707107,0.707107,-0.707107,-708.441,1054.39)">
                    <path d="M-144.5,610C-122.699,610 -105,640.246 -105,677.5C-105,714.754 -122.699,745 -144.5,745C-166.301,745 -184,714.754 -184,677.5C-184,640.246 -166.301,610 -144.5,610ZM-144.5,626.875C-128.15,626.875 -114.875,649.559 -114.875,677.5C-114.875,705.441 -128.15,728.125 -144.5,728.125C-160.85,728.125 -174.125,705.441 -174.125,677.5C-174.125,649.559 -160.85,626.875 -144.5,626.875Z"/>
                </g>
                <g transform="matrix(0.707107,-0.707107,-0.707107,-0.707107,454.042,1054.39)">
                    <path d="M-144.5,610C-122.699,610 -105,640.246 -105,677.5C-105,714.754 -122.699,745 -144.5,745C-166.301,745 -184,714.754 -184,677.5C-184,640.246 -166.301,610 -144.5,610ZM-144.5,626.875C-128.15,626.875 -114.875,649.559 -114.875,677.5C-114.875,705.441 -128.15,728.125 -144.5,728.125C-160.85,728.125 -174.125,705.441 -174.125,677.5C-174.125,649.559 -160.85,626.875 -144.5,626.875Z"/>
                </g>
                <g transform="matrix(1,0,0,1,-1.69969,-1.13687e-13)">
                    <circle cx="-125.5" cy="677.5" r="11.5"/>
                </g>
            </g>
        </g>
    </g>
</svg>
