<?xml version="1.0" encoding="UTF-8" standalone="no"?>
<!DOCTYPE svg PUBLIC "-//W3C//DTD SVG 1.1//EN" "http://www.w3.org/Graphics/SVG/1.1/DTD/svg11.dtd">
<svg width="100%" height="100%" viewBox="0 0 114 74" version="1.1" xmlns="http://www.w3.org/2000/svg" xmlns:xlink="http://www.w3.org/1999/xlink" xml:space="preserve" xmlns:serif="http://www.serif.com/" style="fill-rule:evenodd;clip-rule:evenodd;stroke-linejoin:round;stroke-miterlimit:2;">
    <g transform="matrix(1,0,0,1,-2251,-637)">
        <g transform="matrix(1,0,0,1,-0.333333,0)">
            <g transform="matrix(1,0,0,1,2416.67,61)">
                <g transform="matrix(1,0,0,1.45098,-77,-307.647)">
                    <path d="M-88,652L-83,652L-83,609L-60,609L-60,652L-55,652L-55,660L-88,660L-88,652Z"/>
                </g>
                <g transform="matrix(1,0,0,1.45098,-36.6667,-307.647)">
                    <path d="M-88,652L-83,652L-83,609L-60,609L-60,652L-55,652L-55,660L-88,660L-88,652Z"/>
                </g>
                <g transform="matrix(1,0,0,1.45098,3.66667,-307.647)">
                    <path d="M-88,652L-83,652L-83,609L-60,609L-60,652L-55,652L-55,660L-88,660L-88,652Z"/>
                </g>
            </g>
        </g>
    </g>
</svg>
