<?xml version="1.0" encoding="UTF-8" standalone="no"?>
<!DOCTYPE svg PUBLIC "-//W3C//DTD SVG 1.1//EN" "http://www.w3.org/Graphics/SVG/1.1/DTD/svg11.dtd">
<svg width="100%" height="100%" viewBox="0 0 88 123" version="1.1" xmlns="http://www.w3.org/2000/svg" xmlns:xlink="http://www.w3.org/1999/xlink" xml:space="preserve" xmlns:serif="http://www.serif.com/" style="fill-rule:evenodd;clip-rule:evenodd;stroke-linejoin:round;stroke-miterlimit:2;">
    <g transform="matrix(1,0,0,1,-2583,-876)">
        <g transform="matrix(1,0,0,1,-0.333333,0)">
            <g transform="matrix(0.623134,0,0,0.623134,2779.7,339.575)">
                <path d="M-243.903,862.08C-215.991,862.343 -190.153,886.604 -190.079,916.231L-190.079,937.88L-220.921,937.88C-220.921,927.082 -219.028,915.532 -222.917,906.795C-228.962,893.216 -249.464,888.61 -260.638,899.658C-265.02,903.99 -267.556,910.073 -267.579,916.279L-267.579,978L-298.421,978C-298.421,957.301 -298.498,936.602 -298.42,915.903C-298.175,888.097 -274.382,862.749 -245.296,862.089C-244.832,862.081 -244.368,862.078 -243.903,862.08Z"/>
            </g>
            <g transform="matrix(0.774345,0,0,0.685059,2815.67,244.375)">
                <path d="M-187,1030.13C-187,1017.09 -196.365,1006.5 -207.901,1006.5L-278.099,1006.5C-289.635,1006.5 -299,1017.09 -299,1030.13L-299,1077.38C-299,1090.41 -289.635,1101 -278.099,1101L-207.901,1101C-196.365,1101 -187,1090.41 -187,1077.38L-187,1030.13Z"/>
            </g>
        </g>
    </g>
</svg>
