<?xml version="1.0" encoding="UTF-8" standalone="no"?>
<!DOCTYPE svg PUBLIC "-//W3C//DTD SVG 1.1//EN" "http://www.w3.org/Graphics/SVG/1.1/DTD/svg11.dtd">
<svg width="100%" height="100%" viewBox="0 0 130 130" version="1.1" xmlns="http://www.w3.org/2000/svg" xmlns:xlink="http://www.w3.org/1999/xlink" xml:space="preserve" xmlns:serif="http://www.serif.com/" style="fill-rule:evenodd;clip-rule:evenodd;stroke-linejoin:round;stroke-miterlimit:2;">
    <g transform="matrix(1,0,0,1,-2248,-877)">
        <g transform="matrix(1,0,0,1,-0.333333,0)">
            <g transform="matrix(0.440273,0,0,0.440273,2431.58,595.449)">
                <path d="M-221.33,687.5L-244.767,687.5L-244.767,763.69L-168.577,763.69L-168.577,740.253L-121.704,787.127L-168.577,834L-168.577,810.563L-244.767,810.563L-244.767,886.753L-221.33,886.753L-268.204,933.627L-315.077,886.753L-291.641,886.753L-291.641,810.563L-367.83,810.563L-367.83,834L-414.704,787.127L-367.83,740.253L-367.83,763.69L-291.641,763.69L-291.641,687.5L-315.077,687.5L-268.204,640.627L-221.33,687.5Z"/>
            </g>
        </g>
    </g>
</svg>
