<?xml version="1.0" encoding="UTF-8" standalone="no"?>
<!DOCTYPE svg PUBLIC "-//W3C//DTD SVG 1.1//EN" "http://www.w3.org/Graphics/SVG/1.1/DTD/svg11.dtd">
<svg width="100%" height="100%" viewBox="0 0 115 116" version="1.1" xmlns="http://www.w3.org/2000/svg" xmlns:xlink="http://www.w3.org/1999/xlink" xml:space="preserve" xmlns:serif="http://www.serif.com/" style="fill-rule:evenodd;clip-rule:evenodd;stroke-linejoin:round;stroke-miterlimit:2;">
    <g transform="matrix(1,0,0,1,-3189,-348)">
        <g transform="matrix(1,0,0,1,-0.333333,0)">
            <g transform="matrix(1.08789,0,0,1.08789,2021.19,-40.7129)">
                <path d="M1134.24,358.555C1129.19,357.815 1124.06,357.815 1119.01,358.555L1116.53,367.049C1111.72,368.162 1107.14,370.061 1102.95,372.67L1095.19,368.418C1091.1,371.468 1087.47,375.098 1084.42,379.193L1088.67,386.954C1086.06,391.137 1084.16,395.722 1083.05,400.525L1074.56,403.006C1073.82,408.058 1073.82,413.192 1074.56,418.244L1083.05,420.725C1084.16,425.528 1086.06,430.113 1088.67,434.296L1084.42,442.057C1087.47,446.152 1091.1,449.782 1095.19,452.832L1102.95,448.58C1107.14,451.189 1111.72,453.088 1116.53,454.201L1119.01,462.695C1124.06,463.435 1129.19,463.435 1134.24,462.695L1136.73,454.201C1141.53,453.088 1146.11,451.189 1150.3,448.58L1158.06,452.832C1162.15,449.782 1165.78,446.152 1168.83,442.057L1164.58,434.296C1167.19,430.113 1169.09,425.528 1170.2,420.725L1178.69,418.244C1179.43,413.192 1179.43,408.058 1178.69,403.006L1170.2,400.525C1169.09,395.722 1167.19,391.137 1164.58,386.954L1168.83,379.193C1165.78,375.098 1162.15,371.468 1158.06,368.418L1150.3,372.67C1146.11,370.061 1141.53,368.162 1136.73,367.049L1134.24,358.555ZM1126.63,393.776C1135.92,393.776 1143.47,401.326 1143.47,410.625C1143.47,419.924 1135.92,427.474 1126.63,427.474C1117.33,427.474 1109.78,419.924 1109.78,410.625C1109.78,401.326 1117.33,393.776 1126.63,393.776Z"/>
            </g>
        </g>
    </g>
</svg>
