<?xml version="1.0" encoding="UTF-8" standalone="no"?>
<!DOCTYPE svg PUBLIC "-//W3C//DTD SVG 1.1//EN" "http://www.w3.org/Graphics/SVG/1.1/DTD/svg11.dtd">
<svg width="100%" height="100%" viewBox="0 0 109 122" version="1.1" xmlns="http://www.w3.org/2000/svg" xmlns:xlink="http://www.w3.org/1999/xlink" xml:space="preserve" xmlns:serif="http://www.serif.com/" style="fill-rule:evenodd;clip-rule:evenodd;stroke-linejoin:round;stroke-miterlimit:2;">
    <g transform="matrix(1,0,0,1,-3187,-77)">
        <g transform="matrix(1,0,0,1,-0.333333,0)">
            <g transform="matrix(0.793517,0,0,0.815104,2368.17,306.115)">
                <path d="M1129.13,-192.726C1152.92,-187.786 1169.5,-176.776 1169.5,-164C1169.5,-146.615 1138.81,-132.5 1101,-132.5C1063.19,-132.5 1032.5,-146.615 1032.5,-164C1032.5,-176.776 1049.08,-187.786 1072.87,-192.726C1076.47,-187.382 1080.18,-182.243 1083.68,-177.588C1073.55,-174.851 1066.75,-169.788 1066.75,-164C1066.75,-155.307 1082.1,-148.25 1101,-148.25C1119.9,-148.25 1135.25,-155.307 1135.25,-164C1135.25,-169.788 1128.45,-174.851 1118.32,-177.588C1121.82,-182.243 1125.53,-187.382 1129.13,-192.726ZM1101,-280C1124.73,-280 1144,-260.732 1144,-237C1144,-213.268 1101,-164 1101,-164C1101,-164 1058,-213.268 1058,-237C1058,-260.732 1077.27,-280 1101,-280Z"/>
            </g>
        </g>
    </g>
</svg>
