<?xml version="1.0" encoding="UTF-8" standalone="no"?>
<!DOCTYPE svg PUBLIC "-//W3C//DTD SVG 1.1//EN" "http://www.w3.org/Graphics/SVG/1.1/DTD/svg11.dtd">
<svg width="100%" height="100%" viewBox="0 0 134 134" version="1.1" xmlns="http://www.w3.org/2000/svg" xmlns:xlink="http://www.w3.org/1999/xlink" xml:space="preserve" xmlns:serif="http://www.serif.com/" style="fill-rule:evenodd;clip-rule:evenodd;stroke-linejoin:round;stroke-miterlimit:2;">
    <g transform="matrix(1,0,0,1,-2869,-71)">
        <g transform="matrix(1,0,0,1,-0.333333,0)">
            <g transform="matrix(0.880795,0,0,0.880795,1951.33,-55.3344)">
                <path d="M1118.5,144C1160.17,144 1194,177.83 1194,219.5C1194,261.17 1160.17,295 1118.5,295C1076.83,295 1043,261.17 1043,219.5C1043,177.83 1076.83,144 1118.5,144ZM1118.5,162.875C1149.75,162.875 1175.13,188.248 1175.13,219.5C1175.13,250.752 1149.75,276.125 1118.5,276.125C1087.25,276.125 1061.88,250.752 1061.88,219.5C1061.88,188.248 1087.25,162.875 1118.5,162.875Z"/>
            </g>
            <g transform="matrix(0.880795,0,0,0.880795,1950.01,-50.49)">
                <circle cx="1120" cy="214" r="22"/>
            </g>
        </g>
    </g>
</svg>
