<?xml version="1.0" encoding="UTF-8" standalone="no"?>
<!DOCTYPE svg PUBLIC "-//W3C//DTD SVG 1.1//EN" "http://www.w3.org/Graphics/SVG/1.1/DTD/svg11.dtd">
<svg width="100%" height="100%" viewBox="0 0 99 133" version="1.1" xmlns="http://www.w3.org/2000/svg" xmlns:xlink="http://www.w3.org/1999/xlink" xml:space="preserve" xmlns:serif="http://www.serif.com/" style="fill-rule:evenodd;clip-rule:evenodd;stroke-linejoin:round;stroke-miterlimit:2;">
    <g transform="matrix(1,0,0,1,-3819,-608)">
        <g transform="matrix(1,0,0,1,-0.333333,0)">
            <g transform="matrix(0.491804,0.283943,-0.262656,0.454933,2927.61,-322.874)">
                <path d="M2290.93,736.569L2272.57,736.569C2270.38,736.509 2270.01,736.355 2269.05,736.085C2265.39,735.058 2262.24,732.358 2260.67,728.883C2260.41,728.305 2260.37,728.15 2260.16,727.554L2240.27,666.341C2239.65,664.24 2239.68,663.846 2239.64,662.844C2239.49,659.055 2241.07,655.231 2243.91,652.654C2244.38,652.227 2244.51,652.14 2245.01,651.754L2297.08,613.923C2302.19,620.96 2307.31,627.996 2312.42,635.033L2268.02,667.293L2282.05,710.475L2327.45,710.475L2344.41,658.278L2369.23,666.341L2349.34,727.554C2348.61,729.618 2348.35,729.917 2347.79,730.752C2345.68,733.919 2342.14,736.075 2338.35,736.491C2337.72,736.56 2337.56,736.551 2336.93,736.569L2317.93,736.569L2317.93,814L2317.93,814C2319.26,814 2320.53,814.569 2321.47,815.582C2322.4,816.596 2322.93,817.97 2322.93,819.403C2322.93,835.312 2322.93,880.879 2322.93,880.879C2322.93,883.829 2321.76,886.657 2319.67,888.743C2317.59,890.828 2314.76,892 2311.81,892C2307.14,892 2301.72,892 2297.05,892C2294.1,892 2291.27,890.828 2289.19,888.743C2287.1,886.657 2285.93,883.829 2285.93,880.879L2285.93,819.403C2285.93,817.97 2286.46,816.596 2287.39,815.582C2288.33,814.569 2289.6,814 2290.93,814C2290.93,814 2290.93,814 2290.93,814L2290.93,736.569Z"/>
            </g>
        </g>
    </g>
</svg>
