<?xml version="1.0" encoding="UTF-8" standalone="no"?>
<!DOCTYPE svg PUBLIC "-//W3C//DTD SVG 1.1//EN" "http://www.w3.org/Graphics/SVG/1.1/DTD/svg11.dtd">
<svg width="100%" height="100%" viewBox="0 0 88 123" version="1.1" xmlns="http://www.w3.org/2000/svg" xmlns:xlink="http://www.w3.org/1999/xlink" xml:space="preserve" xmlns:serif="http://www.serif.com/" style="fill-rule:evenodd;clip-rule:evenodd;stroke-linejoin:round;stroke-miterlimit:2;">
    <g transform="matrix(1,0,0,1,-2897,-876)">
        <g transform="matrix(1,0,0,1,-0.333333,0)">
            <g transform="matrix(0.623134,0,0,0.623134,3093.7,339.075)">
                <path d="M-243.898,862.08C-215.986,862.36 -190.142,886.377 -190.079,916.234L-190.079,960.347L-220.921,960.347C-220.921,945.496 -220.706,930.643 -220.925,915.793C-221.273,900.881 -238.328,888.726 -252.925,894.587C-261.502,898.031 -267.539,906.809 -267.579,916.282L-267.579,961.952L-298.421,961.952C-298.421,946.602 -298.485,931.252 -298.42,915.902C-298.183,887.881 -274.163,862.377 -244.602,862.08C-244.368,862.079 -244.133,862.079 -243.898,862.08Z"/>
            </g>
            <g transform="matrix(0.774345,0,0,0.685059,3129.67,243.875)">
                <path d="M-187,1030.13C-187,1017.09 -196.365,1006.5 -207.901,1006.5L-278.099,1006.5C-289.635,1006.5 -299,1017.09 -299,1030.13L-299,1077.38C-299,1090.41 -289.635,1101 -278.099,1101L-207.901,1101C-196.365,1101 -187,1090.41 -187,1077.38L-187,1030.13Z"/>
            </g>
        </g>
    </g>
</svg>
